# xmcd CD database file
#
# Track frame offsets:
#	150
#	14313
#	26819
#	36968
#	50524
#	61642
#	72186
#	83545
#	94747
#	106768
#	119101
#	128727
#	142595
#	154775
#	166057
#	179801
#	190772
#	203646
#	213841
#	224503
#	236544
#	248618
#	258098
#	269016
#	281923
#	292054
#
# Disc length: 4020 seconds
#
# Revision: 0
# Processed by: cddbd v1.5.2PL0 Copyright (c) Steve Scherf et al.
# Submitted via: CDex 2.13
#
DISCID=780fb21a
DTITLE=Various Artist - 4 Star Roundup Vol. 1
DYEAR=2005
DGENRE=Country
TTITLE0=Texas Bill Strength - I'm Doing A Peach Of A Job
TTITLE1=Gene Crabb - A little Less
TTITLE2=Smokey Reason - Hoot Owl Melody
TTITLE3=Tiny Colbert - Pretty Lady
TTITLE4=Long Tom Kizziah - Cotton Tail Stomp
TTITLE5=Armstrong Twins (Floyd and Lloyd) - Beetle With The Boogie Beat
TTITLE6=Woody Woodward - Blow Wind, Blow
TTITLE7=Bill Carter - A Story Book Affair
TTITLE8=Tommy Scott - Kiss And Run
TTITLE9=Pete Graves - Drowning My Sorrows
TTITLE10=Big Jim DeNoone - Wild Strings
TTITLE11=Roy Clark - Mysteries Of Life
TTITLE12=Stewart Family - Little Community Church
TTITLE13=Cactus Pryor - Cry Of The Dying Duck In A Thunder Storm
TTITLE14=Doc Denning - Dusty Trail
TTITLE15=McQuaig Twins (Glenell and Jonell) - You Travel Your Way
TTITLE16=Wilburn Family - Forever Too Late
TTITLE17=Kenny Hardy and Jimmy Wiseman - You Blacked My Blue Eyes Once Too Often
TTITLE18=Slim Willet - Shibuya
TTITLE19=Wally Fowler - Oak Ridge Quartet - You Must Have That Pure Religion
TTITLE20=Wally Fowler - Oak Ridge Quartet - You Must Have That Pure Religion
TTITLE21=Miller Brothers - Tuning The Fiddle
TTITLE22=Miller Brothers - Geronimo
TTITLE23=William Moore (vocal-Jack White)" - I'll Leave All My Troubles This Side Of The Grave
TTITLE24=T. Texas Tyler - Hot Rod Ro
TTITLE25=Maddox Brothers and Rose - Water Baby Blues
EXTD=YEAR: 2005
EXTT0=
EXTT1=
EXTT2=
EXTT3=
EXTT4=
EXTT5=
EXTT6=
EXTT7=
EXTT8=
EXTT9=
EXTT10=
EXTT11=
EXTT12=
EXTT13=
EXTT14=
EXTT15=
EXTT16=
EXTT17=
EXTT18=
EXTT19=
EXTT20=
EXTT21=
EXTT22=
EXTT23=
EXTT24=
EXTT25=
PLAYORDER=
